<svg width="860" height="148" viewBox="0 0 860 148" fill="none" xmlns="http://www.w3.org/2000/svg">
<g clip-path="url(#clip0_1_48)">
<path d="M812.648 143.866C811.08 144.442 809.493 144.964 807.889 145.432C789.778 150.562 765.594 148.183 749.162 138.792C746.925 137.514 743.37 135.365 742.715 132.703C742.665 132.497 742.628 132.287 742.58 132.08C742.518 131.812 742.447 131.546 742.385 131.278C740.753 124.206 741.468 116.171 741.47 108.93L741.504 78.407L741.47 44.71C741.465 38.696 741.198 32.528 741.573 26.531C741.716 24.249 741.937 20.123 743.252 18.307C750.274 8.60801 772.32 3.65502 783.552 2.70902C793.986 1.87402 804.875 3.99901 814.497 8.00601C832.486 15.304 846.778 29.54 854.146 47.501C861.615 65.786 861.165 87.336 853.518 105.483C845.806 123.782 830.732 136.44 812.648 143.866Z" fill="#1098F7"/>
<path d="M52.875 144.702C44.345 142.666 35.86 138.395 28.821 133.209C13.5038 122.106 3.36289 105.249 0.729994 86.515C-2.13331 66.935 2.12499 47.216 14.1747 31.356C26.595 15.008 44.448 5.826 64.551 3.186C65.697 3.08 66.844 2.99099 67.993 2.91799C79.168 2.22799 104.715 5.59298 112.697 13.899C114.262 15.528 114.668 20.319 114.848 22.613C115.768 34.318 115.005 46.542 115.013 58.306L115.071 122.157C115.042 125.438 115.247 132.444 112.735 134.771C112.583 134.912 112.423 135.043 112.268 135.181C110.823 136.476 109.395 137.64 107.731 138.651C93.041 147.583 69.225 148.75 52.875 144.702Z" fill="#47E5BC"/>
<path d="M269.768 144.598C231.112 148.352 196.71 120.11 192.863 81.463C189.015 42.816 217.173 8.34599 255.81 4.40499C294.581 0.44999 329.195 28.726 333.056 67.506C336.917 106.286 308.557 140.831 269.768 144.598ZM261.207 39.939C241.964 41.339 227.541 58.142 229.074 77.375C230.606 96.608 247.506 110.915 266.729 109.252C285.766 107.604 299.906 90.901 298.388 71.853C296.871 52.805 280.265 38.552 261.207 39.939Z" fill="#898980"/>
<path d="M161.452 142.288C154.436 144.823 147.055 146.2 139.598 146.365C136.649 146.416 132.728 146.247 130.533 143.98C128.13 141.497 128.899 125.239 128.929 120.934C128.944 118.661 128.714 113.983 129.862 111.989C131.881 108.483 141.859 110.897 145.992 106.506C147.711 104.68 148.604 102.275 148.948 99.824C150.406 89.438 149.463 77.963 149.455 67.472L149.502 4.98001L186.399 5.056L186.456 69.306C186.465 81.328 187.128 93.711 186.024 105.677C185.524 111.096 184.476 116.54 182.468 121.615C178.548 131.52 171.043 138.091 161.452 142.288Z" fill="black"/>
<path d="M338.714 142.445C338.969 96.662 338.973 50.878 338.729 5.096L374.535 5.08999C385.78 5.09299 397.986 4.15499 408.928 7.02999C418.538 9.55399 427.272 15.887 432.221 24.568C436.544 32.15 438.022 42.213 435.495 50.625C432.927 59.175 426.737 63.504 419.221 67.371C421.625 67.981 424.061 68.582 426.378 69.475C433.752 72.365 439.648 78.106 442.733 85.4C447.44 96.597 446.074 111.327 441.616 122.36C440.174 125.337 438.255 128.059 435.934 130.417C421.093 145.525 395.313 142.517 376.033 142.467L338.714 142.445ZM375.17 36.942L375.056 55.58C381.948 55.713 391.957 57.321 397.86 53.197C399.523 50.665 400.902 47.424 400.341 44.32C399.929 42.035 398.153 40.358 396.233 39.218C390.475 35.797 381.677 36.876 375.17 36.942ZM375.143 87.918L375.372 109.579C383.666 109.634 397.081 111.496 403.862 106.405C406.061 103.645 407.23 101.576 406.894 97.965C406.625 95.072 405.749 92.571 403.413 90.724C397.695 86.203 382.508 87.846 375.143 87.918Z" fill="black"/>
<path d="M452.002 142.415C452.371 96.673 451.346 50.812 452.286 5.09398L486.404 4.98097C496.43 4.95497 506.895 4.392 516.746 6.48C523.398 7.889 529.85 10.598 535.233 14.796C542.02 20.089 546.062 27.415 547.135 35.936C548.782 49.013 545.899 57.326 537.876 67.58C546.826 74.678 553.686 83.735 555.543 95.228C557.339 106.343 554.42 117.195 547.915 126.279C547.313 126.983 546.688 127.657 546.042 128.321C530.245 144.572 509.567 142.586 488.788 142.391C476.527 142.194 464.263 142.202 452.002 142.415ZM487.54 36.535L487.534 53.628C494.576 53.647 504.539 54.957 510.751 51.183C512.415 49.3 514.052 46.752 514.014 44.126C513.99 42.463 513.216 41.192 511.973 40.164C506.084 35.292 494.778 36.508 487.54 36.535ZM487.736 86.012C487.803 93.509 487.798 101.007 487.72 108.505C496.606 108.617 508.853 110.366 516.479 105.333C519.035 102.618 520.519 100.043 520.493 96.224C520.475 93.491 519.7 90.956 517.621 89.087C511.928 83.968 495.337 85.997 487.736 86.012Z" fill="black"/>
<path d="M555.018 142.113C556.963 132.681 560.324 123.328 563.213 114.145C567.434 100.416 571.759 86.718 576.187 73.054C583.466 50.544 589.815 27.55 597.581 5.23701C610.223 4.97601 622.971 4.85399 635.608 5.25699C648.611 51.197 665.301 96.097 678.236 142.031L639.989 142.147C638.579 135.58 636.596 129.096 635.029 122.555L596.794 122.543C595.38 129.188 593.676 135.769 591.688 142.265C579.464 142.368 567.24 142.318 555.018 142.113ZM615.812 56.914C612.715 68.363 609.476 79.774 606.097 91.144L616.966 91.26L625.395 91.295C623.688 84.352 618.947 61.752 615.812 56.914Z" fill="#898980"/>
<path d="M684.571 5.32599L698.152 5.24701L722.061 5.19199L722.044 142.255L708.375 142.201L684.457 142.189L684.571 5.32599Z" fill="#898980"/>
</g>
<defs>
<clipPath id="clip0_1_48">
<rect width="860" height="148" fill="white"/>
</clipPath>
</defs>
</svg>
